<svg xmlns="http://www.w3.org/2000/svg" viewBox="-72 -72 328.6 192.9"><text x="135.7" y="-244.4" class="cmr10" transform="translate(-114.4 182.7)">Chip</text><text x="118.2" y="-762.5" class="cmr10" transform="translate(-3.4 730.6)">[<tspan x="124.2">]</tspan></text><text x="258.9" y="-1038.1" class="cmr10" transform="translate(-149.3 1036.1)">Part</text><text x="335.5" y="-1376.8" class="cmr10" transform="translate(-170.4 1404.7)">[<tspan x="341.6">]</tspan></text><text x="312.9" y="-1625.9" class="cmr10" transform="translate(-99.9 1683.7)">Conn</text><text x="326.4" y="-1785.3" class="cmr10" transform="translate(-92.8 1873)">Pin</text><text x="357.4" y="-1821.8" class="cmr10" transform="translate(-128.5 1939.4)">“out”</text><path fill="none" stroke="#000" stroke-miterlimit="10" stroke-width=".4" d="M241.1 91.2v16"/><text x="359.4" y="-1785.3" class="cmr10" transform="translate(-158.8 1873)">Pin</text><text x="390.4" y="-1821.8" class="cmr10" transform="translate(-194.5 1939.4)">“out”</text><path fill="none" stroke="#000" stroke-miterlimit="10" stroke-width=".4" d="M208.1 91.2v16M224.6 61.3l-16.5 16.1M224.6 61.3l16.5 16.1"/><text x="379.3" y="-1718.9" class="cmr10" transform="translate(-225.5 1776.7)">Conn</text><text x="389.7" y="-1878.3" class="cmr10" transform="translate(-219.1 1966)">Pin</text><text x="414.6" y="-1914.8" class="cmr10" transform="translate(-245.6 2032.4)">“in”</text><path fill="none" stroke="#000" stroke-miterlimit="10" stroke-width=".4" d="M178.1 91.2v15.9"/><text x="412.5" y="-1878.3" class="cmr10" transform="translate(-267.4 1966)">Pin</text><text x="434.6" y="-1914.8" class="cmr10" transform="translate(-289.7 2032.4)">“b”</text><path fill="none" stroke="#000" stroke-miterlimit="10" stroke-width=".4" d="M152.6 91.2v15.9M165.4 61.3l-12.8 16.1M165.4 61.3l12.7 16.1"/><text x="429.6" y="-1718.9" class="cmr10" transform="translate(-326.7 1776.7)">Conn</text><text x="440" y="-1878.3" class="cmr10" transform="translate(-320.5 1966)">Pin</text><text x="464.9" y="-1914.8" class="cmr10" transform="translate(-346.9 2032.4)">“in”</text><path fill="none" stroke="#000" stroke-miterlimit="10" stroke-width=".4" d="M127.1 91.2v15.9"/><text x="462.1" y="-1878.3" class="cmr10" transform="translate(-367.9 1966)">Pin</text><text x="483.7" y="-1914.8" class="cmr10" transform="translate(-389.4 2032.4)">“a”</text><path fill="none" stroke="#000" stroke-miterlimit="10" stroke-width=".4" d="M101.8 91.2v15.9M114.5 61.3l-12.7 16.1M114.5 61.3l12.6 16.1M169.5 33.9l-55 13.6M169.5 33.9l-4.1 13.6M169.5 33.9l55.1 13.6"/><text x="319.1" y="-1197.5" class="cmr10" transform="translate(-267 1225.4)">“Nand”</text><path fill="none" stroke="#000" stroke-miterlimit="10" stroke-width=".4" d="M119.2 1.5l-50.3 16M119.2 1.5l50.3 15.4M119.2-25.9v13.6"/><text x="127.7" y="-676.1" class="cmr10" transform="translate(-105.7 644.3)">[<tspan x="133.8">]</tspan></text><text x="168.6" y="-772.4" class="cmr10" transform="translate(-159.4 770.5)">PinDecl</text><text x="199.6" y="-809" class="cmr10" transform="translate(-185.4 836.9)">“out”</text><path fill="none" stroke="#000" stroke-miterlimit="10" stroke-width=".4" d="M26.4 1.5v16M26.4-25.9v13.5"/><text x="187.1" y="-769.1" class="cmr10" transform="translate(-208.1 737.2)">[<tspan x="193.2">]</tspan></text><text x="228" y="-865.4" class="cmr10" transform="translate(-261.8 863.4)">PinDecl</text><text x="252.9" y="-901.9" class="cmr10" transform="translate(-278.7 929.9)">“in”</text><path fill="none" stroke="#000" stroke-miterlimit="10" stroke-width=".4" d="M-16.6 1.5v16M-16.6-25.9v13.5"/><text x="218" y="-649.6" class="cmr10" transform="translate(-286.7 617.7)">“Not”</text><path fill="none" stroke="#000" stroke-miterlimit="10" stroke-width=".4" d="M31.8-56.3l-87.3 14M31.8-56.3l-48.4 13.4M31.8-56.3l-5.4 13.4M31.8-56.3l87.4 13.4"/></svg>