<svg xmlns="http://www.w3.org/2000/svg" viewBox="-72 -72 76.5 100.6"><text x="2.2" y="-157.4" class="cmr10" transform="translate(-44.7 93)">exp</text><text x="-14.7" y="-406.4" class="cmr10" transform="translate(-1.3 371.9)">exp</text><text x="11.1" y="-502.7" class="cmr10" transform="translate(-29 498.1)">num</text><text x="22.9" y="-539.3" class="cmtt10" transform="translate(-33.9 564.6)">3</text><path fill="none" stroke="#000" stroke-miterlimit="10" stroke-width=".4" d="M-8.4-1.1v16.8M-8.4-29v16.6"/><text x="23.6" y="-499.4" class="cmr10" transform="translate(-67.3 464.9)">exp</text><text x="49.3" y="-595.7" class="cmr10" transform="translate(-94.9 591.1)">num</text><text x="61.2" y="-632.3" class="cmtt10" transform="translate(-99.9 657.5)">2</text><path fill="none" stroke="#000" stroke-miterlimit="10" stroke-width=".4" d="M-36.1-1.1v16.8M-36.1-29v16.6"/><text x="44.3" y="-499.4" class="cmr10" transform="translate(-113 464.9)">opr</text><text x="68" y="-632.3" class="cmtt10" transform="translate(-132.1 657.5)">+</text><path fill="none" stroke="#000" stroke-miterlimit="10" stroke-width=".4" d="M-61.5-4.6v21.1M-61.5-29v24.4M-34.9-58.9l-26.6 16.6M-34.9-58.9l-1.2 16.6M-34.9-58.9l26.5 16.6"/></svg>