<svg xmlns="http://www.w3.org/2000/svg" viewBox="-72 -72 76.5 100.6"><text x="4.5" y="-157.4" class="cmr10" transform="translate(-45.9 93)">exp</text><text x="-7.7" y="-406.4" class="cmr10" transform="translate(-8.3 371.9)">exp</text><text x="18.1" y="-502.7" class="cmr10" transform="translate(-36 498.1)">num</text><text x="29.9" y="-539.3" class="cmtt10" transform="translate(-40.9 564.6)">3</text><path fill="none" stroke="#000" stroke-miterlimit="10" stroke-width=".4" d="M-8.4-1.1v16.8M-8.4-29v16.6"/><text x="25.9" y="-499.4" class="cmr10" transform="translate(-66.9 464.9)">opr</text><text x="49.7" y="-632.3" class="cmtt10" transform="translate(-86 657.5)">+</text><path fill="none" stroke="#000" stroke-miterlimit="10" stroke-width=".4" d="M-33.7-4.6v21.1M-33.7-29v24.4"/><text x="56" y="-499.4" class="cmr10" transform="translate(-122.7 464.9)">exp</text><text x="81.7" y="-595.7" class="cmr10" transform="translate(-150.4 591.1)">num</text><text x="93.6" y="-632.3" class="cmtt10" transform="translate(-155.3 657.5)">2</text><path fill="none" stroke="#000" stroke-miterlimit="10" stroke-width=".4" d="M-59.1-1.1v16.8M-59.1-29v16.6M-33.7-58.9l-25.4 16.6M-33.7-58.9v16.6M-33.7-58.9l25.3 16.6"/></svg>