<svg xmlns="http://www.w3.org/2000/svg" viewBox="-72 -72 671.6 242.8"><text x="607.5" y="-294.3" class="cmr10" transform="translate(-348.8 232.6)">chip</text><text x="-19" y="-765.3" class="cmtt10" transform="translate(610.3 930.3)">}</text><text x="568.7" y="-1192.6" class="cmr10" transform="translate(-180.2 1160.7)">parts</text><text x="960.3" y="-1565.9" class="cmr10" transform="translate(-569.7 1563.9)">part</text><text x="626.9" y="-1914" class="cmtt10" transform="translate(-49.5 2079)">;</text><text x="656.2" y="-2084.6" class="cmtt10" transform="translate(-92.7 2249.6)">)</text><text x="1129.1" y="-2394.5" class="cmr10" transform="translate(-749.9 2422.4)">connections</text><text x="1051.4" y="-2787.3" class="cmr10" transform="translate(-562.4 2845.1)">connection</text><text x="1054.5" y="-3089" class="cmr10" transform="translate(-531.1 3176.7)">pinExp</text><text x="1075.9" y="-3220.4" class="cmr10" transform="translate(-540.8 3338)">id</text><text x="1097.2" y="-3274.5" class="cmti10" transform="translate(-565.4 3439.5)">out</text><path fill="none" stroke="#000" stroke-miterlimit="10" stroke-width=".4" d="M539.2 121.1v34.3M539.2 93.2v14"/><text x="1074.3" y="-3122.2" class="cmtt10" transform="translate(-564.7 3287.2)">=</text><text x="1127.5" y="-3199.5" class="cmr10" transform="translate(-657.9 3287.2)">pinExp</text><text x="1148.8" y="-3330.9" class="cmr10" transform="translate(-667.7 3448.6)">id</text><text x="1170.1" y="-3385" class="cmti10" transform="translate(-692.2 3550.1)">out</text><path fill="none" stroke="#000" stroke-miterlimit="10" stroke-width=".4" d="M485.3 121.1v34.3M485.3 93.2v14M512.2 61.4v7.9h-26.9v8.1M512.2 61.4v96M512.2 61.4v7.9h27v8.1"/><text x="1071.2" y="-2824.6" class="cmtt10" transform="translate(-615.5 2989.7)">,</text><text x="1251.1" y="-3070.9" class="cmr10" transform="translate(-870 3128.7)">connection</text><text x="1254.3" y="-3372.6" class="cmr10" transform="translate(-838.6 3460.3)">pinExp</text><text x="1270.4" y="-3504" class="cmr10" transform="translate(-843.2 3621.6)">id</text><text x="1286.4" y="-3558.1" class="cmti10" transform="translate(-859.8 3723.2)">in</text><path fill="none" stroke="#000" stroke-miterlimit="10" stroke-width=".4" d="M431.4 121.1V155M431.4 93.2v14"/><text x="1274.1" y="-3405.8" class="cmtt10" transform="translate(-872.3 3570.9)">=</text><text x="1327.2" y="-3483.2" class="cmr10" transform="translate(-965.5 3570.9)">pinExp</text><text x="1342.2" y="-3614.6" class="cmr10" transform="translate(-968.9 3732.2)">id</text><text x="1354" y="-3668.7" class="cmti10" transform="translate(-979.2 3833.7)">b</text><path fill="none" stroke="#000" stroke-miterlimit="10" stroke-width=".4" d="M377.5 121.1v33.5M377.5 93.2v14M404.4 61.3v8h-26.9v8.1M404.4 61.3v96.1M404.4 61.3v8h27v8.1"/><text x="1270.9" y="-3108.2" class="cmtt10" transform="translate(-923 3273.3)">,</text><text x="1404.9" y="-3212.7" class="cmr10" transform="translate(-1131.6 3270.5)">connection</text><text x="1408.1" y="-3514.4" class="cmr10" transform="translate(-1100.3 3602.1)">pinExp</text><text x="1424.2" y="-3645.8" class="cmr10" transform="translate(-1104.8 3763.5)">id</text><text x="1440.2" y="-3699.9" class="cmti10" transform="translate(-1121.4 3865)">in</text><path fill="none" stroke="#000" stroke-miterlimit="10" stroke-width=".4" d="M323.5 121.1V155M323.5 93.2v14"/><text x="1427.9" y="-3547.6" class="cmtt10" transform="translate(-1133.9 3712.7)">=</text><text x="1481" y="-3625" class="cmr10" transform="translate(-1227.1 3712.7)">pinExp</text><text x="1496" y="-3756.4" class="cmr10" transform="translate(-1230.5 3874)">id</text><text x="1508.5" y="-3810.5" class="cmti10" transform="translate(-1241.8 3975.5)">a</text><path fill="none" stroke="#000" stroke-miterlimit="10" stroke-width=".4" d="M269.6 121.1v36.2M269.6 93.2v14M296.6 61.4v7.9h-27v8.1M296.6 61.4v96M296.6 61.4v7.9h26.9v8.1M404.4 31.5v7.9H296.6v8.3"/><path fill="none" stroke="#000" stroke-miterlimit="10" stroke-width=".4" d="M404.4 31.5v7.9h-53.9v120.9M404.4 31.5V47.7M404.4 31.5v7.9h53.9v120.9"/><path fill="none" stroke="#000" stroke-miterlimit="10" stroke-width=".4" d="M404.4 31.5v7.9h107.8v8.3"/><text x="1010.5" y="-2427.4" class="cmtt10" transform="translate(-770.4 2592.4)">(</text><text x="1052.8" y="-2562.9" class="cmr10" transform="translate(-837.7 2590.8)">id</text><text x="1083.7" y="-2706.6" class="cmti10" transform="translate(-876.5 2871.6)">Nand</text><path fill="none" stroke="#000" stroke-miterlimit="10" stroke-width=".4" d="M219.3 31.5V154.6M399.7 3.5v8H219.3v6"/><path fill="none" stroke="#000" stroke-miterlimit="10" stroke-width=".4" d="M399.7 3.5v8h-157v143.1M399.7 3.5v8h4.7v6.2"/><path fill="none" stroke="#000" stroke-miterlimit="10" stroke-width=".4" d="M399.7 3.5v8h166.4v143.1"/><path fill="none" stroke="#000" stroke-miterlimit="10" stroke-width=".4" d="M399.7 3.5v8H580v145.7M399.7-26.4v14.8"/><text x="406.5" y="-1225.5" class="cmtt10" transform="translate(-213.2 1390.5)">:</text><text x="465.6" y="-1458.1" class="cmtt10" transform="translate(-307 1623.1)">PARTS</text><text x="482.8" y="-1693.4" class="cmtt10" transform="translate(-338 1858.5)">;</text><text x="555.3" y="-2120.1" class="cmr10" transform="translate(-445.7 2088.3)">pins</text><text x="597.1" y="-2490.7" class="cmr10" transform="translate(-496.1 2488.7)">pinStmt</text><text x="618.4" y="-2801.4" class="cmr10" transform="translate(-504 2829.3)">id</text><text x="639.7" y="-2945.2" class="cmti10" transform="translate(-528.6 3110.2)">out</text><path fill="none" stroke="#000" stroke-miterlimit="10" stroke-width=".4" d="M118.5 31.5v123.9M118.5 3.5v14M118.5-26.4v14.1"/><text x="583.7" y="-2155.8" class="cmtt10" transform="translate(-507 2320.9)">OUT</text><text x="606.1" y="-2391.2" class="cmtt10" transform="translate(-543.3 2556.2)">;</text><text x="678.6" y="-2817.9" class="cmr10" transform="translate(-650.9 2786)">pins</text><text x="720.4" y="-3188.4" class="cmr10" transform="translate(-701.4 3186.5)">pinStmt</text><text x="736.4" y="-3499.2" class="cmr10" transform="translate(-704.1 3527.1)">id</text><text x="752.5" y="-3642.9" class="cmti10" transform="translate(-720.7 3808)">in</text><path fill="none" stroke="#000" stroke-miterlimit="10" stroke-width=".4" d="M36.5 31.5V155M36.5 3.5v14M36.5-26.4v14.1"/><text x="699.1" y="-2853.6" class="cmtt10" transform="translate(-699.3 3018.6)">IN</text><text x="723.8" y="-3091.1" class="cmtt10" transform="translate(-737.5 3256.2)">{</text><text x="768.8" y="-3513.1" class="cmr10" transform="translate(-803.7 3481.3)">id</text><text x="792.2" y="-3716.7" class="cmti10" transform="translate(-831.4 3881.7)">Not</text><path fill="none" stroke="#000" stroke-miterlimit="10" stroke-width=".4" d="M-30.8-28.3v183"/><text x="800.5" y="-3316.3" class="cmtt10" transform="translate(-869.2 3481.3)">CHIP</text><path fill="none" stroke="#000" stroke-miterlimit="10" stroke-width=".4" d="M267.8-56.3v8h-326v203.7"/><path fill="none" stroke="#000" stroke-miterlimit="10" stroke-width=".4" d="M267.8-56.3v8H-30.8v6"/><path fill="none" stroke="#000" stroke-miterlimit="10" stroke-width=".4" d="M267.8-56.3v8H-11.3V154"/><path fill="none" stroke="#000" stroke-miterlimit="10" stroke-width=".4" d="M267.8-56.3v8H5.1v203.7"/><path fill="none" stroke="#000" stroke-miterlimit="10" stroke-width=".4" d="M267.8-56.3v8H36.5v6.3"/><path fill="none" stroke="#000" stroke-miterlimit="10" stroke-width=".4" d="M267.8-56.3v8H65.4v205.5"/><path fill="none" stroke="#000" stroke-miterlimit="10" stroke-width=".4" d="M267.8-56.3v8H84.5v203.7"/><path fill="none" stroke="#000" stroke-miterlimit="10" stroke-width=".4" d="M267.8-56.3v8H118.5v6.3"/><path fill="none" stroke="#000" stroke-miterlimit="10" stroke-width=".4" d="M267.8-56.3v8H147.3v205.5"/><path fill="none" stroke="#000" stroke-miterlimit="10" stroke-width=".4" d="M267.8-56.3v8h-96.1v203.7"/><path fill="none" stroke="#000" stroke-miterlimit="10" stroke-width=".4" d="M267.8-56.3v8H196v205.5M267.8-56.3v8h131.9v6.8"/><path fill="none" stroke="#000" stroke-miterlimit="10" stroke-width=".4" d="M267.8-56.3v8h326V154"/></svg>