<svg xmlns="http://www.w3.org/2000/svg" viewBox="-68.7 -72 119.1 28.7"><path d="M-.6-57.6c0-7.9-6.4-14.2-14.2-14.2-7.8 0-14.2 6.3-14.2 14.2 0 7.8 6.4 14.1 14.2 14.1C-7-43.5-.6-49.8-.6-57.6z" stroke="#000" fill="none" stroke-width=".4"/><text class="cmmi10" x="-14.8" y="-57.6" transform="translate(-2.1 2.4)">b</text><text class="cmmi10" x="-14.8" y="-57.6" transform="translate(-53.9 2.4)">x</text><text class="cmmi10" x="-14.8" y="-57.6" transform="translate(36.8 2.4)">output</text><path d="M-59.7-57.6h30.1" stroke="#000" fill="none" stroke-width=".4" stroke-miterlimit="10"/><path d="M-30.8-59.2c.1.6 1.2 1.5 1.5 1.6-.3.1-1.4 1-1.5 1.6" stroke="#000" fill="none" stroke-width=".3" stroke-miterlimit="10" stroke-linecap="round" stroke-linejoin="round"/><text class="cmmi10" x="-14.8" y="-57.6" transform="translate(-33.3 -3.5)">w</text><path d="M-.4-57.6h18.6" stroke="#000" fill="none" stroke-width=".4" stroke-miterlimit="10"/><path d="M17-59.2c.1.6 1.2 1.5 1.5 1.6-.3.1-1.4 1-1.5 1.6" stroke="#000" fill="none" stroke-width=".3" stroke-miterlimit="10" stroke-linecap="round" stroke-linejoin="round"/></svg>
