<svg xmlns="http://www.w3.org/2000/svg" viewBox="-68.7 -68.7 203.1 177.5"><defs><clipPath id="clip1"><path d="M-62.3 95.9H132V-65.5H-62.3z"/></clipPath></defs><path d="M-62.3 95.9V-65.5m32.4 161.4V-65.5M2.4 95.9V-65.5M34.8 95.9V-65.5M67.2 95.9V-65.5M99.6 95.9V-65.5M132 95.9V-65.5M-62.3 15.4H132M-62.3-65.5H132" stroke="#bfbfbf" fill="none" stroke-width=".4" stroke-miterlimit="10"/><path d="M-62.3 98.1v-4.3m32.4 4.3v-4.3m32.3 4.3v-4.3m32.4 4.3v-4.3m32.4 4.3v-4.3m32.4 4.3v-4.3m32.4 4.3v-4.3M32.7 15.4H37m-4.3-80.9H37" stroke="gray" fill="none" stroke-width=".2" stroke-miterlimit="10"/><path d="M-62.3 95.9H130" stroke="#000" fill="none" stroke-width=".4" stroke-miterlimit="10"/><path d="M132 95.9l-3.2-1.6 1.2 1.6-1.2 1.6"/><path d="M34.8 95.9V-63.5" stroke="#000" fill="none" stroke-width=".4" stroke-miterlimit="10"/><path d="M34.8-65.5l-1.6 3.2 1.6-1.2 1.6 1.2"/><text class="cmsy10" x="-52.6" y="79.7" transform="translate(-16.1 28.3)">−</text><text class="cmr10" x="-44.9" y="79.7" transform="translate(-16.1 28.3)">6</text><text class="cmsy10" x="-52.6" y="79.7" transform="translate(16.3 28.3)">−</text><text class="cmr10" x="-44.9" y="79.7" transform="translate(16.3 28.3)">4</text><text class="cmsy10" x="-52.6" y="79.7" transform="translate(48.7 28.3)">−</text><text class="cmr10" x="-44.9" y="79.7" transform="translate(48.7 28.3)">2</text><text class="cmr10" x="-52.6" y="79.7" transform="translate(85 28.3)">0</text><text class="cmr10" x="-52.6" y="79.7" transform="translate(117.3 28.3)">2</text><text class="cmr10" x="-52.6" y="79.7" transform="translate(149.7 28.3)">4</text><text class="cmr10" x="-52.6" y="79.7" transform="translate(182.1 28.3)">6</text><text class="cmr10" x="-52.6" y="79.7" transform="translate(69.1 -61.1)">0</text><text class="cmmi10" x="-47.6" y="79.7" transform="translate(69.1 -61.1)" font-family="cmmi10" font-size="10">.</text><text class="cmr10" x="-44.9" y="79.7" transform="translate(69.1 -61.1)">5</text><text class="cmr10" x="-52.6" y="79.7" transform="translate(76.8 -142)">1</text><path d="M-62.3 95.9h1.9l2-.1 2-.1h1.9l2-.1 2-.1 1.9-.1 2-.1 1.9-.2 2-.1 2-.2 1.9-.2 2-.2 2-.2 1.9-.3 2-.3 1.9-.4 2-.4 2-.4 1.9-.5 2-.5 2-.7 1.9-.6 2-.8 1.9-.9 2-.9 2-1.1 1.9-1.2 2-1.3 2-1.5 1.9-1.6 2-1.8 1.9-2 2-2.1 2-2.4L8.3 70l2-2.8 2-3 1.9-3.3 2-3.4 1.9-3.7 2-3.9 2-4.1 1.9-4.3 2-4.5 1.9-4.6 2-4.8 2-4.8 1.9-4.9 2-4.9 2-4.9 1.9-4.8 2-4.7 1.9-4.7 2-4.5 2-4.3 1.9-4.1 2-3.9 2-3.7 1.9-3.5 2-3.2 1.9-3 2-2.8 2-2.5 1.9-2.4 2-2.2 2-1.9 1.9-1.8 2-1.7L75-53l2-1.3 2-1.2 1.9-1.1 2-1 2-.8 1.9-.8 2-.7 1.9-.6 2-.6 2-.5 1.9-.4 2-.4 2-.3 1.9-.3 2-.3 1.9-.3 2-.2 2-.2 1.9-.1 2-.2 2-.1 1.9-.1 2-.1 1.9-.1 2-.1 2-.1 1.9-.1h2l1.9-.1" stroke="red" fill="none" stroke-width=".4" stroke-miterlimit="10" clip-path="url(#clip1)"/></svg>